<svg width="20" height="20" viewBox="0 0 20 20" fill="none" xmlns="http://www.w3.org/2000/svg">
<path d="M18.4 19.825L15.775 17.2H2.625V14.4C2.625 13.8333 2.77083 13.3125 3.0625 12.8375C3.35417 12.3625 3.74167 12 4.225 11.75C4.975 11.3667 5.7375 11.0583 6.5125 10.825C7.2875 10.5917 8.075 10.4167 8.875 10.3L0 1.425L1.425 0L19.825 18.4L18.4 19.825ZM17.025 11.75C17.5083 11.9833 17.8917 12.3375 18.175 12.8125C18.4583 13.2875 18.6083 13.8 18.625 14.35L15.275 11C15.575 11.1167 15.8708 11.2333 16.1625 11.35C16.4542 11.4667 16.7417 11.6 17.025 11.75ZM12.825 8.55L7.275 3C7.65833 2.43333 8.14167 1.99167 8.725 1.675C9.30833 1.35833 9.94167 1.2 10.625 1.2C11.725 1.2 12.6667 1.59167 13.45 2.375C14.2333 3.15833 14.625 4.1 14.625 5.2C14.625 5.88333 14.4667 6.51667 14.15 7.1C13.8333 7.68333 13.3917 8.16667 12.825 8.55Z" fill="#BA1A1A"/>
</svg>
