<svg width="20" height="20" viewBox="0 0 20 20" fill="none" xmlns="http://www.w3.org/2000/svg">
<path d="M7.49984 4.16667H5.83317C4.9127 4.16667 4.1665 4.91286 4.1665 5.83333V15.8333C4.1665 16.7538 4.9127 17.5 5.83317 17.5H14.1665C15.087 17.5 15.8332 16.7538 15.8332 15.8333V5.83333C15.8332 4.91286 15.087 4.16667 14.1665 4.16667H12.4998M7.49984 4.16667C7.49984 5.08714 8.24603 5.83333 9.1665 5.83333H10.8332C11.7536 5.83333 12.4998 5.08714 12.4998 4.16667M7.49984 4.16667C7.49984 3.24619 8.24603 2.5 9.1665 2.5H10.8332C11.7536 2.5 12.4998 3.24619 12.4998 4.16667M7.49984 11.6667L9.1665 13.3333L12.4998 10" stroke="#0052D9" stroke-width="1.66667" stroke-linecap="round" stroke-linejoin="round"/>
</svg>
