<svg width="33" height="33" viewBox="0 0 33 33" fill="none" xmlns="http://www.w3.org/2000/svg">
<path d="M16.25 31.25C23.0888 31.2496 29.0624 26.6255 30.7767 20.005M16.25 31.25C9.41117 31.2496 3.43761 26.6255 1.72334 20.005M16.25 31.25C20.3917 31.25 23.75 24.5333 23.75 16.25C23.75 7.96667 20.3917 1.25 16.25 1.25M16.25 31.25C12.1083 31.25 8.75001 24.5333 8.75001 16.25C8.75001 7.96667 12.1083 1.25 16.25 1.25M16.25 1.25C21.6667 1.24774 26.6636 4.16699 29.3217 8.88667M16.25 1.25C10.8333 1.24774 5.83642 4.16699 3.17834 8.88667M29.3217 8.88667C25.6928 12.0299 21.0509 13.7569 16.25 13.75C11.2533 13.75 6.68334 11.9167 3.17834 8.88667M29.3217 8.88667C30.5898 11.1333 31.2541 13.6702 31.25 16.25C31.25 17.5467 31.085 18.805 30.7767 20.005M30.7767 20.005C26.332 22.469 21.332 23.758 16.25 23.75C10.98 23.75 6.02834 22.3917 1.72334 20.005M1.72334 20.005C1.40792 18.7783 1.24888 17.5166 1.25001 16.25C1.25001 14.9533 1.41501 13.695 1.72334 12.495" stroke="#22C55E" stroke-width="2.5" stroke-linecap="round" stroke-linejoin="round"/>
</svg>
