<svg width="32" height="42" viewBox="0 0 32 42" fill="none" xmlns="http://www.w3.org/2000/svg">
<rect x="1" y="3" width="30" height="38" rx="1" stroke="#EF4444" stroke-width="2"/>
<path d="M8 2C8 0.89543 8.89543 0 10 0H22C23.1046 0 24 0.895431 24 2V6H8V2Z" fill="#EF4444"/>
<path fill-rule="evenodd" clip-rule="evenodd" d="M10.2928 16.2926C10.6833 15.9022 11.3163 15.9022 11.7068 16.2926L15.9998 20.5856L20.2928 16.2926C20.5439 16.0327 20.9157 15.9284 21.2653 16.0199C21.6149 16.1114 21.888 16.3845 21.9795 16.7341C22.071 17.0837 21.9667 17.4555 21.7068 17.7066L17.4138 21.9996L21.7068 26.2926C22.0858 26.685 22.0803 27.3087 21.6946 27.6944C21.3089 28.0802 20.6852 28.0856 20.2928 27.7066L15.9998 23.4136L11.7068 27.7066C11.3144 28.0856 10.6907 28.0802 10.305 27.6944C9.91923 27.3087 9.91381 26.685 10.2928 26.2926L14.5858 21.9996L10.2928 17.7066C9.9024 17.3161 9.9024 16.6831 10.2928 16.2926Z" fill="#EF4444"/>
</svg>
