<svg width="16" height="16" viewBox="0 0 16 16" fill="none" xmlns="http://www.w3.org/2000/svg">
<path fill-rule="evenodd" clip-rule="evenodd" d="M16 8C16 12.4153 12.4153 16 8 16C3.58468 16 0 12.4153 0 8C0 3.58468 3.58468 0 8 0C12.4153 0 16 3.58468 16 8ZM9 4C9 4.55192 8.55192 5 8 5C7.44808 5 7 4.55192 7 4C7 3.44808 7.44808 3 8 3C8.55192 3 9 3.44808 9 4ZM7 7C6.44808 7 6 7.44808 6 8C6 8.55192 6.44808 9 7 9V12C7 12.5519 7.44808 13 8 13H9C9.55192 13 10 12.5519 10 12C10 11.4481 9.55192 11 9 11V8C9 7.44808 8.55192 7 8 7H7Z" fill="#3B82F6"/>
</svg>
