<svg width="20" height="20" viewBox="0 0 20 20" fill="none" xmlns="http://www.w3.org/2000/svg">
<path d="M14.7141 13.8808L11.1783 17.4167C10.866 17.7293 10.4422 17.9049 10.0003 17.9049C9.55846 17.9049 9.13471 17.7293 8.82242 17.4167L5.28575 13.8808C2.68236 11.2773 2.68243 7.05627 5.28591 4.45283C7.8894 1.84938 12.1104 1.84938 14.7139 4.45283C17.3174 7.05627 17.3175 11.2773 14.7141 13.8808V13.8808" stroke="#0052D9" stroke-width="1.66667" stroke-linecap="round" stroke-linejoin="round"/>
<path d="M12.5 9.16675C12.5 10.5465 11.3798 11.6667 10 11.6667C8.62021 11.6667 7.5 10.5465 7.5 9.16675C7.5 7.78696 8.62021 6.66675 10 6.66675C11.3798 6.66675 12.5 7.78696 12.5 9.16675V9.16675" stroke="#0052D9" stroke-width="1.66667" stroke-linecap="round" stroke-linejoin="round"/>
</svg>
