<svg width="20" height="20" viewBox="0 0 20 20" fill="none" xmlns="http://www.w3.org/2000/svg">
<path d="M8.55664 17.5C8.85437 18.0156 9.40456 18.3333 9.99997 18.3333C10.5954 18.3333 11.1456 18.0156 11.4433 17.5" stroke="#64748B" stroke-width="1.66667" stroke-linecap="round" stroke-linejoin="round"/>
<path d="M2.71823 12.7715C2.4958 13.0153 2.43819 13.3674 2.57132 13.6693C2.70444 13.9713 3.00322 14.1663 3.33323 14.1665H16.6666C16.9965 14.1666 17.2955 13.972 17.429 13.6703C17.5624 13.3685 17.5053 13.0164 17.2832 12.7723C16.1749 11.6298 14.9999 10.4157 14.9999 6.6665C14.9999 3.90693 12.7595 1.6665 9.9999 1.6665C7.24032 1.6665 4.9999 3.90693 4.9999 6.6665C4.9999 10.4157 3.82406 11.6298 2.71823 12.7715" stroke="#64748B" stroke-width="1.66667" stroke-linecap="round" stroke-linejoin="round"/>
</svg>
