<svg width="20" height="20" viewBox="0 0 20 20" fill="none" xmlns="http://www.w3.org/2000/svg">
<path d="M16.6666 10.8335C16.6666 15.0002 13.7499 17.0835 10.2833 18.2919C10.1017 18.3534 9.90453 18.3504 9.72492 18.2835C6.24992 17.0835 3.33325 15.0002 3.33325 10.8335V5.00021C3.33325 4.53997 3.70635 4.16688 4.16659 4.16688C5.83325 4.16688 7.91659 3.16688 9.36659 1.90021C9.73131 1.5886 10.2685 1.5886 10.6333 1.90021C12.0916 3.17521 14.1666 4.16688 15.8333 4.16688C16.2935 4.16688 16.6666 4.53997 16.6666 5.00021V10.8335" stroke="#64748B" stroke-width="1.66667" stroke-linecap="round" stroke-linejoin="round"/>
<path d="M7.5 10.0002L9.16667 11.6668L12.5 8.3335" stroke="#64748B" stroke-width="1.66667" stroke-linecap="round" stroke-linejoin="round"/>
</svg>
