<svg width="40" height="40" viewBox="0 0 40 40" fill="none" xmlns="http://www.w3.org/2000/svg">
<path d="M5 20C5 28.2787 11.7213 35 20 35C28.2787 35 35 28.2787 35 20C35 11.7213 28.2787 5 20 5C11.7213 5 5 11.7213 5 20V20" stroke="#F97316" stroke-width="2.5"/>
<path d="M20 11.667V20.0003L25 25.0003" stroke="#F97316" stroke-width="2.5"/>
<path d="M25 10C25 12.7596 27.2404 15 30 15C32.7596 15 35 12.7596 35 10C35 7.24042 32.7596 5 30 5C27.2404 5 25 7.24042 25 10Z" fill="white"/>
<path d="M25 10C25 12.7596 27.2404 15 30 15C32.7596 15 35 12.7596 35 10C35 7.24042 32.7596 5 30 5C27.2404 5 25 7.24042 25 10V10" stroke="#F97316" stroke-width="2.5"/>
<path d="M30 7.5V12.5M27.5 10H32.5" stroke="#F97316" stroke-width="3.33333"/>
</svg>
